<svg id="Group_27" data-name="Group 27" xmlns="http://www.w3.org/2000/svg" width="29.139" height="26.71" viewBox="0 0 29.139 26.71">
  <path id="Path_61" data-name="Path 61" d="M28.532,45.615h-.607V21.94a.607.607,0,0,0-.607-.607H21.247a.607.607,0,0,0-.607.607V45.615H18.212v-17.6A.607.607,0,0,0,17.6,27.4H11.534a.607.607,0,0,0-.607.607v17.6H8.5V34.081a.607.607,0,0,0-.607-.607H1.821a.607.607,0,0,0-.607.607V45.615H.607A.607.607,0,0,0,0,46.222v1.214a.607.607,0,0,0,.607.607H28.532a.607.607,0,0,0,.607-.607V46.222A.607.607,0,0,0,28.532,45.615Z" transform="translate(0 -21.333)" fill="#2784fb"/>
</svg>
