<svg id="Group_345" data-name="Group 345" xmlns="http://www.w3.org/2000/svg" width="136" height="136" viewBox="0 0 136 136">
  <g id="Group_344" data-name="Group 344">
    <g id="Group_343" data-name="Group 343">
      <path id="Path_126" data-name="Path 126" d="M308.5,0a31.167,31.167,0,1,0,31.167,31.167A31.2,31.2,0,0,0,308.5,0ZM319,41.67a2.833,2.833,0,0,1-4.007,0l-8.5-8.5a2.831,2.831,0,0,1-.83-2v-17a2.833,2.833,0,1,1,5.667,0V29.993l7.67,7.67A2.832,2.832,0,0,1,319,41.67Z" transform="translate(-203.667)" fill="#2784fb"/>
      <path id="Path_127" data-name="Path 127" d="M4.776.769C4.745.74,4.7.742,4.667.715A2.775,2.775,0,0,0,3.521.139a2.643,2.643,0,0,0-.38-.077A2.644,2.644,0,0,0,2.833,0,2.826,2.826,0,0,0,1.716.232a0,0,0,0,1,0,0C1.7.236,1.7.246,1.689.25a2.793,2.793,0,0,0-1.08.907,2.572,2.572,0,0,0-.192.286A2.754,2.754,0,0,0,0,2.833V133.167a2.754,2.754,0,0,0,.426,1.4,2.649,2.649,0,0,0,.192.285,2.8,2.8,0,0,0,1.127.924.014.014,0,0,0,0,0,2.846,2.846,0,0,0,3.091-.618L43.673,96.333H99.167a2.834,2.834,0,0,0,1.943-4.9Z" fill="#2784fb"/>
    </g>
  </g>
</svg>
