<svg xmlns="http://www.w3.org/2000/svg" width="503.095" height="511" viewBox="0 0 503.095 511">
  <path id="Path_155" data-name="Path 155" d="M501.948,218.912a36.607,36.607,0,0,0-22.667-15.6,36.811,36.811,0,0,0-24.55-53.064,36.9,36.9,0,0,0-1.906-37.5,36.569,36.569,0,0,0-22.667-15.6,36.849,36.849,0,0,0-52.97-47.86L340.5,73.583A229.269,229.269,0,0,0,278.56,52.62a170.281,170.281,0,0,0-23.637-28.6L239.746,9.314a33.209,33.209,0,0,0-50.8,42.179q.6.906,1.173,1.821A231.348,231.348,0,0,0,7.162,311.625C18.277,392.486,72.14,462.17,147.726,493.488A231.294,231.294,0,0,0,453.585,358.373a7.944,7.944,0,1,0-14.943-5.4A215.535,215.535,0,0,1,168.159,484.158l64.647-42.81.012-.008.008-.008,53.727-35.579h0a21.673,21.673,0,0,0,6.106-30.031l-.71-1.076,10.437-6.912a35.392,35.392,0,0,1,25.22-5.451,51.231,51.231,0,0,0,36.511-7.894l86.565-57.326a215.977,215.977,0,0,1-2.928,22.316,7.942,7.942,0,0,0,6.362,9.263,7.725,7.725,0,0,0,1.458.137,7.947,7.947,0,0,0,7.8-6.5,232.414,232.414,0,0,0,3.8-36.137l24.393-16.156a36.857,36.857,0,0,0,10.379-51.075ZM325.075,83.8,300.8,99.875,296.018,87A169.972,169.972,0,0,0,289.2,71.2,213.341,213.341,0,0,1,325.075,83.8ZM73.469,138.881a215.263,215.263,0,0,1,124.25-70.842,98.164,98.164,0,0,1,4.951,59.45L183.3,211.181a21.626,21.626,0,0,0-27.73-3.232l-54.874,36.335-.007,0,0,0L21.54,296.7c-.433-5.583-.659-11.209-.659-16.831A215.185,215.185,0,0,1,73.469,138.881ZM280.256,388.833a5.757,5.757,0,0,1-2.479,3.673h0l-47.189,31.247L143.009,293.137a7.945,7.945,0,0,0-13.2,8.85L217.34,432.529l-67.364,44.612A215.915,215.915,0,0,1,23.618,314.081l79.235-52.3,9.119,13.606a7.947,7.947,0,0,0,13.2-8.85l-9.057-13.509L164.342,221.2a5.781,5.781,0,0,1,8.008,1.634L279.414,384.5A5.727,5.727,0,0,1,280.256,388.833Zm211.508-145.4a20.824,20.824,0,0,1-8.97,13.306l-27.887,18.468a.179.179,0,0,1-.028.015l-99.535,65.918a35.374,35.374,0,0,1-25.22,5.451,51.259,51.259,0,0,0-36.511,7.894L283.176,361.4,195.488,228.99l22.667-97.914a114.162,114.162,0,0,0-8.359-74.94,7.7,7.7,0,0,0-.335-.705,112.237,112.237,0,0,0-7.271-12.714,17.319,17.319,0,0,1,26.495-22l15.178,14.714A155.236,155.236,0,0,1,281.118,92.53l8.265,22.265c.016.043.031.078.047.117s.043.1.062.156c.059.136.113.261.172.366a7.762,7.762,0,0,0,.545.983,7.94,7.94,0,0,0,11.01,2.238l84.745-56.117a20.963,20.963,0,0,1,23.15,34.955l-7.357,4.873-.008,0L385.34,113.239a.469.469,0,0,1-.063.043c-.093.067-.183.129-.257.191a7.941,7.941,0,0,0,9.1,13.014l16.421-10.877a20.965,20.965,0,0,1,23.138,34.967L409.9,166.323a7.944,7.944,0,1,0,8.772,13.248l3.68-2.437,12.733-8.433a20.965,20.965,0,0,1,23.15,34.959l-11.875,7.864c-.062.039-.125.082-.187.124L434.462,219.4a7.946,7.946,0,1,0,8.772,13.251l3.681-2.436,0,0,12.732-8.429a20.957,20.957,0,0,1,32.113,21.649Z" transform="translate(-4.99 0)" fill="#2784fb"/>
</svg>
