<svg xmlns="http://www.w3.org/2000/svg" width="174.811" height="40.437" viewBox="0 0 174.811 40.437">
  <g id="Group_130" data-name="Group 130" transform="translate(-128.189 -214.25)">
    <g id="Group_129" data-name="Group 129" transform="translate(130 183.001)" opacity="0.5">
      <path id="Path_69" data-name="Path 69" d="M255.926,160l0,9.729a1.389,1.389,0,0,0,.407.983l6.96,6.958,1.966-1.966-6.552-6.551,0-9.153Z" transform="translate(-233.679 -116.876)" stroke="#000" stroke-width="1.5"/>
      <path id="Path_70" data-name="Path 70" d="M25.031,32A19.482,19.482,0,0,0,5.785,48.686H0l6.953,6.953,6.953-6.953H8.595a16.659,16.659,0,1,1,3.277,13.045L9.68,63.442A19.469,19.469,0,1,0,25.031,32Z" transform="translate(0 0)" stroke="#000" stroke-width="1.5"/>
    </g>
    <text id="History" transform="translate(190 245)" font-size="30" font-family="Montserrat-Bold, Montserrat" font-weight="700" opacity="0.5"><tspan x="0" y="0">History</tspan></text>
  </g>
</svg>
