<svg xmlns="http://www.w3.org/2000/svg" width="164.794" height="37" viewBox="0 0 164.794 37">
  <g id="Group_12" data-name="Group 12" transform="translate(-128.139 -69)">
    <text id="live_poll" data-name="live poll" transform="translate(170.933 98)" fill="#2784fb" font-size="30" font-family="Montserrat-Bold, Montserrat" font-weight="700"><tspan x="0" y="0">live poll</tspan></text>
    <g id="Group_10" data-name="Group 10" transform="translate(128.139 101.91) rotate(-90)">
      <g id="Group_9" data-name="Group 9" transform="translate(0)">
        <path id="Path_6" data-name="Path 6" d="M32.524,7.66,25.083.218a.744.744,0,0,0-1.052,0L.218,24.031a.744.744,0,0,0,0,1.052L7.66,32.524a.744.744,0,0,0,1.052,0L32.525,8.712A.744.744,0,0,0,32.524,7.66Zm-3.5,2.45-2.45-2.45a.744.744,0,0,0-1.052,1.052l2.45,2.45-1.924,1.924L24.339,11.38a.744.744,0,0,0-1.052,1.052l1.706,1.706-1.924,1.924-1.706-1.706a.744.744,0,0,0-1.052,1.052l1.706,1.706L20.092,19.04l-2.45-2.45a.744.744,0,0,0-1.052,1.052l2.45,2.45-1.924,1.924L15.409,20.31a.744.744,0,0,0-1.052,1.052l1.706,1.706-1.924,1.924-1.706-1.706a.744.744,0,0,0-1.052,1.052l1.706,1.706-1.924,1.924-2.45-2.45A.744.744,0,0,0,7.66,26.571l2.45,2.45L8.186,30.946,1.8,24.557,24.557,1.8l6.389,6.389Z"/>
      </g>
    </g>
  </g>
</svg>
