<svg xmlns="http://www.w3.org/2000/svg" width="30.002" height="30.003" viewBox="0 0 30.002 30.003">
  <g id="Group_114" data-name="Group 114" transform="translate(0 0)">
    <g id="Group_30" data-name="Group 30">
      <g id="Group_29" data-name="Group 29">
        <path id="Path_62" data-name="Path 62" d="M267.3,14.371h13.09a.626.626,0,0,0,.624-.68A14.979,14.979,0,0,0,267.356.031a.632.632,0,0,0-.477.162.626.626,0,0,0-.2.462v13.09A.626.626,0,0,0,267.3,14.371Z" transform="translate(-251.017 -0.027)" fill="#fff"/>
        <path id="Path_63" data-name="Path 63" d="M308.785,265.611H297.467a.626.626,0,0,0-.443,1.069l8.006,8.006a.625.625,0,0,0,.443.184h.027a.626.626,0,0,0,.453-.223,14.919,14.919,0,0,0,3.457-8.355.626.626,0,0,0-.624-.68Z" transform="translate(-279.41 -250.014)" fill="#fff"/>
        <path id="Path_64" data-name="Path 64" d="M14.6,15.413a.641.641,0,0,1-.184-.443V.627a.626.626,0,0,0-.2-.462A.608.608,0,0,0,13.735,0,15.028,15.028,0,1,0,24.7,26.48a.626.626,0,0,0,.04-.922Z" transform="translate(-0.009 0.001)" fill="#fff"/>
      </g>
    </g>
  </g>
</svg>
