<svg xmlns="http://www.w3.org/2000/svg" width="30.00200080871582" height="30.003000259399414" style=""><rect id="backgroundrect" width="100%" height="100%" x="0" y="0" fill="none" stroke="none"/>
  
<g class="currentLayer" style=""><title>Layer 1</title><g id="Group_114" data-name="Group 114" class="" fill-opacity="1" fill="#2784fb">
    <g id="Group_30" data-name="Group 30" fill="#2784fb">
      <g id="Group_29" data-name="Group 29" fill="#2784fb">
        <path id="Path_62" data-name="Path 62" d="M16.283001708984386,14.343999999299646 h13.09 a0.6260000000000001,0.6260000000000001 0 0 0 0.6240000000000001,-0.6800000000000002 A14.979,14.979 0 0 0 16.33900170898437,0.003999999299645431 a0.6320000000000001,0.6320000000000001 0 0 0 -0.47700000000000004,0.16200000000000003 a0.6260000000000001,0.6260000000000001 0 0 0 -0.2,0.462 v13.09 A0.6260000000000001,0.6260000000000001 0 0 0 16.283001708984386,14.343999999299646 z" fill="#2784fb"/>
        <path id="Path_63" data-name="Path 63" d="M29.37499633789065,15.596992431640615 H18.05699633789061 a0.6260000000000001,0.6260000000000001 0 0 0 -0.44300000000000006,1.069 l8.006,8.006 a0.6250000000000001,0.6250000000000001 0 0 0 0.44300000000000006,0.18400000000000002 h0.027000000000000007 a0.6260000000000001,0.6260000000000001 0 0 0 0.453,-0.22300000000000003 a14.919,14.919 0 0 0 3.457,-8.355 a0.6260000000000001,0.6260000000000001 0 0 0 -0.6240000000000001,-0.6800000000000002 z" fill="#2784fb"/>
        <path id="Path_64" data-name="Path 64" d="M14.59100000038743,15.414000000047498 a0.6410000000000001,0.6410000000000001 0 0 1 -0.18400000000000002,-0.44300000000000006 V0.6280000000474976 a0.6260000000000001,0.6260000000000001 0 0 0 -0.2,-0.462 A0.6080000000000001,0.6080000000000001 0 0 0 13.72600000038743,0.0010000000474974513 A15.028,15.028 0 1 0 24.69100000038743,26.481000000047498 a0.6260000000000001,0.6260000000000001 0 0 0 0.04000000000000001,-0.922 z" fill="#2784fb"/>
      </g>
    </g>
  </g></g></svg>