<svg xmlns="http://www.w3.org/2000/svg" width="511.001" height="498.131" viewBox="0 0 511.001 498.131">
  <g id="Group_420" data-name="Group 420" transform="translate(0.998 -6.986)">
    <path id="Path_152" data-name="Path 152" d="M314.471,242.381h-3.056V231.3a17.338,17.338,0,0,1,6.4-13.485,32.236,32.236,0,0,0,11.9-25.072V89.917a21.323,21.323,0,0,0-27.684-20.346V40.354a21.281,21.281,0,0,0-29.162-19.805,21.287,21.287,0,0,0-39.673,0A21.263,21.263,0,0,0,204.4,36.5a21.273,21.273,0,0,0-28.046,20.211V136.6a7.476,7.476,0,1,0,14.951,0V56.713a6.365,6.365,0,0,1,12.729,0v59.434a7.477,7.477,0,1,0,14.955,0V40.354a6.365,6.365,0,1,1,12.729,0v75.793a7.476,7.476,0,1,0,14.951,0V28.3a6.366,6.366,0,1,1,12.733,0v87.843a7.476,7.476,0,1,0,14.951,0V40.354a6.365,6.365,0,1,1,12.729,0v99.708a10.583,10.583,0,0,1-6.623,9.84l-18.012,7.317a22.644,22.644,0,0,0-14.183,21.065v6.7a7.478,7.478,0,0,0,14.955,0v-6.7a7.753,7.753,0,0,1,4.854-7.213l18.015-7.317a25.472,25.472,0,0,0,15.95-23.692V89.917a6.365,6.365,0,1,1,12.729,0V192.744a17.33,17.33,0,0,1-6.4,13.485,32.236,32.236,0,0,0-11.9,25.072v11.08H208.647V230.9a32.368,32.368,0,0,0-11.295-24.566,17.387,17.387,0,0,1-6.046-13.189V169.828a7.478,7.478,0,1,0-14.955,0v23.317a32.371,32.371,0,0,0,11.3,24.566A17.388,17.388,0,0,1,193.7,230.9v11.524a18.193,18.193,0,0,0-17.345,18.14V497.64a7.478,7.478,0,0,0,14.955,0V316.592h126.4V497.64a7.477,7.477,0,0,0,14.955,0V260.564A18.212,18.212,0,0,0,314.471,242.381ZM191.3,301.636V260.568a3.237,3.237,0,0,1,3.232-3.236H314.475a3.237,3.237,0,0,1,3.232,3.236v41.068Z" fill="#2784fb"/>
    <path id="Path_153" data-name="Path 153" d="M491.816,367.843h-3.057v-11.08a17.328,17.328,0,0,1,6.4-13.485,32.248,32.248,0,0,0,11.9-25.072V215.379a21.325,21.325,0,0,0-27.684-20.347v-29.22a21.28,21.28,0,0,0-29.161-19.8,21.29,21.29,0,0,0-39.677,0,21.259,21.259,0,0,0-28.795,15.953,21.277,21.277,0,0,0-28.051,20.211V318.607a32.294,32.294,0,0,0,11.2,24.476c.016.015.086.074.1.089a17.386,17.386,0,0,1,6.046,13.189v11.521a18.194,18.194,0,0,0-17.345,18.144V497.64a7.477,7.477,0,0,0,14.955,0V442.049h126.4V497.64a7.477,7.477,0,0,0,14.955,0V386.026A18.206,18.206,0,0,0,491.816,367.843ZM368.646,427.1V386.03a3.237,3.237,0,0,1,3.232-3.236h59.969a7.476,7.476,0,1,0,0-14.951H385.991V356.361a32.279,32.279,0,0,0-11.2-24.475c-.016-.016-.082-.074-.1-.09a17.378,17.378,0,0,1-6.051-13.189V182.175a6.365,6.365,0,1,1,12.73,0v59.434a7.477,7.477,0,1,0,14.955,0v-75.8a6.365,6.365,0,0,1,12.729,0v75.8a7.478,7.478,0,1,0,14.955,0V153.765a6.364,6.364,0,1,1,12.729,0v87.844a7.476,7.476,0,1,0,14.951,0v-75.8a6.367,6.367,0,0,1,12.733,0v99.711a10.581,10.581,0,0,1-6.628,9.841l-18.011,7.317a22.643,22.643,0,0,0-14.184,21.065v6.7a7.478,7.478,0,0,0,14.956,0v-6.7a7.753,7.753,0,0,1,4.853-7.213l18.016-7.318a25.47,25.47,0,0,0,15.949-23.692V215.379a6.365,6.365,0,1,1,12.729,0v102.83a17.341,17.341,0,0,1-6.4,13.486,32.223,32.223,0,0,0-11.9,25.068v11.08h-10.3a7.476,7.476,0,0,0,0,14.951H491.82a3.237,3.237,0,0,1,3.232,3.236V427.1Z" fill="#2784fb"/>
    <path id="Path_154" data-name="Path 154" d="M137.126,367.843h-3.06v-11.08a17.325,17.325,0,0,1,6.4-13.485,32.235,32.235,0,0,0,11.9-25.072V215.379a21.322,21.322,0,0,0-27.68-20.347v-29.22a21.284,21.284,0,0,0-29.166-19.8,21.287,21.287,0,0,0-39.672,0,21.263,21.263,0,0,0-28.8,15.953A21.274,21.274,0,0,0-1,182.175V318.607a32.277,32.277,0,0,0,11.2,24.476c.015.015.082.074.1.089a17.391,17.391,0,0,1,6.051,13.189v11.521A18.194,18.194,0,0,0-1,386.026V497.64a7.476,7.476,0,1,0,14.951,0V442.049H25.24a7.476,7.476,0,1,0,0-14.951H13.953V386.026a3.236,3.236,0,0,1,3.232-3.232H137.126a3.236,3.236,0,0,1,3.232,3.232V427.1H54.479a7.476,7.476,0,1,0,0,14.951h85.879V497.64a7.476,7.476,0,1,0,14.952,0V386.026A18.2,18.2,0,0,0,137.126,367.843Zm-105.828,0V356.361a32.277,32.277,0,0,0-11.2-24.475c-.015-.016-.082-.074-.1-.09a17.391,17.391,0,0,1-6.051-13.189V182.175a6.367,6.367,0,1,1,12.733,0v59.434a7.476,7.476,0,1,0,14.951,0v-75.8a6.365,6.365,0,0,1,12.729,0v75.8a7.478,7.478,0,1,0,14.956,0V153.765a6.365,6.365,0,1,1,12.729,0v87.844a7.475,7.475,0,1,0,14.951,0v-75.8a6.367,6.367,0,0,1,12.733,0v99.711a10.585,10.585,0,0,1-6.624,9.841L85.1,282.681a22.645,22.645,0,0,0-14.179,21.065v6.7a7.475,7.475,0,1,0,14.951,0v-6.7a7.753,7.753,0,0,1,4.854-7.213l18.016-7.318a25.47,25.47,0,0,0,15.949-23.692V215.379a6.364,6.364,0,1,1,12.729,0v102.83a17.348,17.348,0,0,1-6.4,13.486,32.229,32.229,0,0,0-11.9,25.068v11.08Z" fill="#2784fb"/>
  </g>
</svg>
