<svg xmlns="http://www.w3.org/2000/svg" width="512.001" height="500.033" viewBox="0 0 512.001 500.033">
  <g id="Group_421" data-name="Group 421" transform="translate(0 -5.984)">
    <path id="Path_156" data-name="Path 156" d="M352.582,267.8c-.006-.013-.012-.022-.018-.035a10,10,0,0,0-18.109.033L273.37,398.814a10,10,0,1,0,18.127,8.451l19.075-40.913h65.875l19.065,40.911a10,10,0,0,0,18.128-8.448ZM319.9,346.352l23.62-50.662,23.609,50.662Z" fill="#2784fb"/>
    <path id="Path_157" data-name="Path 157" d="M511.517,492.945l-27.492-85.188a158.37,158.37,0,0,0,14.991-92.189,157.056,157.056,0,0,0-174.63-133.887,156.2,156.2,0,0,0-16.223-90.436,10,10,0,1,0-17.787,9.145,136.635,136.635,0,0,1-25.021,159.57c-42.33,42.332-108.738,52.2-161.492,23.992a10.008,10.008,0,0,0-7.784-.7L25.506,306.007,48.26,235.432a10,10,0,0,0-.7-7.783c-28.2-52.755-18.339-119.165,23.989-161.5A136.579,136.579,0,0,1,231.193,41.181a10,10,0,1,0,9.166-17.776A157.063,157.063,0,0,0,12.967,141.067a158.5,158.5,0,0,0,14.982,92.188L.483,318.446A10,10,0,0,0,13.07,331.033l85.188-27.467A158.526,158.526,0,0,0,187.6,318.92,157.059,157.059,0,0,0,321.548,493.05a158.514,158.514,0,0,0,92.2-14.982l85.189,27.467a10,10,0,0,0,12.585-12.59Zm-95.6-35.19a10,10,0,0,0-7.782.7,137.069,137.069,0,0,1-199.763-143.49A157.232,157.232,0,0,0,320.5,202.469a136.575,136.575,0,0,1,119.922,38.184c42.348,42.35,52.214,108.758,23.993,161.493a10,10,0,0,0-.7,7.79l22.775,70.57Z" fill="#2784fb"/>
    <path id="Path_158" data-name="Path 158" d="M239.552,156.294a77.909,77.909,0,1,0-30.371,61.6l25.42,25.421a10,10,0,1,0,14.142-14.143l-25.415-25.415a77.381,77.381,0,0,0,16.224-47.467ZM209.037,189.47l-23.506-23.506a10,10,0,0,0-14.142,14.143l23.5,23.5a57.883,57.883,0,1,1,14.15-14.136Z" fill="#2784fb"/>
    <path id="Path_159" data-name="Path 159" d="M272.59,67.5a10,10,0,0,0,7.13-17.012l-.029-.029a10,10,0,1,0-7.1,17.041Z" fill="#2784fb"/>
  </g>
</svg>
